<svg viewBox="0 0 310 306.1728627583043" height="306.1728627583043" width="310" style="width: 310px; height: 306.173px; position: absolute; top: 50%; left: 50%; z-index: 0; cursor: pointer; transform: translate(-50%, -50%) scale(0.475548);"><defs id="SvgjsDefs2025"><linearGradient id="SvgjsLinearGradient2034"><stop id="SvgjsStop2035" stop-color="#8f5e25" offset="0"></stop><stop id="SvgjsStop2036" stop-color="#fbf4a1" offset="0.5"></stop><stop id="SvgjsStop2037" stop-color="#8f5e25" offset="1"></stop></linearGradient><linearGradient id="SvgjsLinearGradient2038"><stop id="SvgjsStop2039" stop-color="#8f5e25" offset="0"></stop><stop id="SvgjsStop2040" stop-color="#fbf4a1" offset="0.5"></stop><stop id="SvgjsStop2041" stop-color="#8f5e25" offset="1"></stop></linearGradient><linearGradient id="SvgjsLinearGradient2042"><stop id="SvgjsStop2043" stop-color="#8f5e25" offset="0"></stop><stop id="SvgjsStop2044" stop-color="#fbf4a1" offset="0.5"></stop><stop id="SvgjsStop2045" stop-color="#8f5e25" offset="1"></stop></linearGradient><linearGradient id="SvgjsLinearGradient2046"><stop id="SvgjsStop2047" stop-color="#8f5e25" offset="0"></stop><stop id="SvgjsStop2048" stop-color="#fbf4a1" offset="0.5"></stop><stop id="SvgjsStop2049" stop-color="#8f5e25" offset="1"></stop></linearGradient></defs><g id="SvgjsG2026" featurekey="rootContainer" transform="matrix(2.9388568246550153,0,0,2.9388568246550153,-0.11025446391769686,0.08425770368723878)" fill="url(#SvgjsLinearGradient2034)"><path xmlns="http://www.w3.org/2000/svg" d="M104.6 41.3a52.2 52.2 0 0 0-3.5-11.2A51.1 51.1 0 0 0 44.3 1a49.6 49.6 0 0 0-5.7 1.5 49.1 49.1 0 0 0-7.9 2.7A51.6 51.6 0 0 0 6.3 77a53.7 53.7 0 0 0 4.1 6.4 57 57 0 0 0 5 5.7 51.7 51.7 0 0 0 55.3 11.5l3.3-1.4 3-1.5a50.9 50.9 0 0 0 5.8-3.8l2.7-2.1 1.2-1.1 1.1-.9 2-1.8.7-.6.6-.7 1.8-2a48.5 48.5 0 0 0 5.9-8.3 50.4 50.4 0 0 0 5.6-14.7 51.6 51.6 0 0 0 .2-20.4zM87.1 88.6l-1.2 1.1-1.2 1.1-2.6 2.1a49.5 49.5 0 0 1-5.7 3.6l-3 1.5-3.2 1.3-4.9 1.6h-.5a50.9 50.9 0 0 1-20.3.1 51.8 51.8 0 0 1-11.1-3.6A50.5 50.5 0 0 1 22.9 91a52 52 0 0 1-9.1-9.4 50.3 50.3 0 0 1-3.7-5.7c-.6-1-1.1-2-1.6-3.1s-1-2.1-1.3-3.2a50.6 50.6 0 0 1 8.6-50.8l.8-.8.5-.6.6-.6 1.2-1.1 2.4-2.1A50.5 50.5 0 0 1 62.4 3.2a48.5 48.5 0 0 1 14.7 5.2 47 47 0 0 1 8.3 5.8l2 1.8.7.6.6.7 1.8 2a49.7 49.7 0 0 1 11.3 22.9 50.8 50.8 0 0 1-.1 20.2 51.6 51.6 0 0 1-3.6 11 50.2 50.2 0 0 1-6.6 10.5l-2.1 2.4zm-44.9 13a50.1 50.1 0 0 1-13.7-5 51.8 51.8 0 0 1-6.2-4 55.2 55.2 0 0 1-5.5-4.8 49.9 49.9 0 0 1-11-53.2c.4-1.1.9-2.1 1.3-3.1l.6-1.3a50.2 50.2 0 0 0-3.4 11 51.3 51.3 0 0 0 2.4 28.5c.4 1.1.9 2.2 1.4 3.2s1 2.1 1.6 3.1a50.6 50.6 0 0 0 3.7 5.8 51.5 51.5 0 0 0 9.2 9.5 50.9 50.9 0 0 0 10.7 6.5 51 51 0 0 0 28.7 3.9 50.3 50.3 0 0 1-19.8-.1zm61.9-39.9a50.2 50.2 0 0 1-5.5 14.7 48.4 48.4 0 0 1-5.8 8.3l-1.8 2-.6.7-.7.6-1.9 1.7h.2l2.3-2.4 2.1-2.5A51.3 51.3 0 0 0 98.9 74a51.4 51.4 0 0 0 3.2-31.6 49.6 49.6 0 0 0-2.5-8.2 49.4 49.4 0 0 0-3.1-6.5 48.7 48.7 0 0 0-5.9-8.3l-1.8-2-.6-.7-.7-.6-2-1.8A49.9 49.9 0 0 0 77.3 8a49.3 49.3 0 0 0-6.5-3.2 49.8 49.8 0 0 0-8.2-2.6A52.2 52.2 0 0 0 49.9 1a50.8 50.8 0 0 1 22.7 3.2l3.2 1.3 3.1 1.6a50.1 50.1 0 0 1 5.7 3.7l2.6 2.1 1.2 1.1 1.2 1.1 2.3 2.3 2.1 2.4a50.4 50.4 0 0 1 6.5 10.5 51.6 51.6 0 0 1 3.6 11 51.1 51.1 0 0 1 0 20.3z"></path></g><g id="SvgjsG2027" featurekey="symbolFeature-0" transform="matrix(1.0105220632969814,0,0,1.0105220632969814,115,66)" fill="url(#SvgjsLinearGradient2038)"><path xmlns="http://www.w3.org/2000/svg" fill="url(#SvgjsLinearGradient2038)" d="M79.167,10.416C79.167,4.671,74.494,0,68.75,0c-5.744,0-10.417,4.671-10.417,10.416  c0,5.029,3.585,9.237,8.333,10.205v15.865l-25,19.642v-18.84C46.416,36.319,50,32.112,50,27.083c0-5.745-4.674-10.417-10.417-10.417  s-10.417,4.672-10.417,10.417c0,5.029,3.584,9.236,8.333,10.205v18.84l-25-19.642V20.621c4.749-0.968,8.333-5.176,8.333-10.205  C20.833,4.671,16.16,0,10.417,0C4.673,0,0,4.671,0,10.416c0,5.029,3.585,9.237,8.333,10.205v17.892L37.5,61.426v17.952  c-4.749,0.964-8.333,5.176-8.333,10.205c0,5.741,4.673,10.417,10.417,10.417S50,95.324,50,89.583c0-5.029-3.585-9.241-8.333-10.205  V61.426l29.167-22.913V20.621C75.583,19.653,79.167,15.445,79.167,10.416z M4.167,10.416c0-3.446,2.803-6.25,6.25-6.25  c3.446,0,6.25,2.804,6.25,6.25s-2.804,6.25-6.25,6.25C6.97,16.666,4.167,13.862,4.167,10.416z M68.75,16.666  c-3.447,0-6.25-2.804-6.25-6.25s2.803-6.25,6.25-6.25c3.446,0,6.25,2.804,6.25,6.25S72.197,16.666,68.75,16.666z"></path></g><g id="SvgjsG2028" featurekey="nameFeature-0" transform="matrix(0.9308819842604015,0,0,0.9308819842604015,53.659529445520405,176.94647528019425)" fill="url(#SvgjsLinearGradient2042)"><path d="M30.52 24.439999999999998 l0 2.8 c0 7.92 -5.76 13.32 -14.16 13.32 c-8.6 0 -14.92 -6.32 -14.92 -14.6 c0 -8.24 6.36 -14.52 14.68 -14.52 c6.92 0 11.68 3.88 13.44 8.56 l-5.08 1.44 c-1.4 -2.88 -4 -4.84 -8.32 -4.84 c-5.48 0 -9.16 4.28 -9.16 9.32 s3.48 9.52 9.76 9.52 c4.72 0 7.6 -2.8 8.08 -6.28 l-8.6 0 l0 -4.72 l14.28 0 z M41.769999999999996 40.56 c-6.48 0 -11 -4.28 -11 -10.68 c0 -6.04 4.24 -10.68 10.6 -10.68 c6.64 0 10.44 4.6 10.44 10.4 c0 0.64 0 1.24 -0.12 1.88 l-15.72 0 c0.36 2.6 2.2 4.6 5.88 4.6 c2.56 0 4.12 -1.16 4.92 -2.68 l4.76 1.4 c-1.16 2.64 -4.44 5.76 -9.76 5.76 z M35.97 28.16 l10.68 0 c-0.24 -2.48 -2.16 -4.48 -5.32 -4.48 c-3.08 0 -5.08 2.16 -5.36 4.48 z M61.22 40.56 c-5 0 -8.84 -2.96 -9.84 -6.24 l4.76 -1.4 c0.68 1.92 2.6 3.36 5.28 3.36 c2.04 0 3.36 -0.96 3.36 -2.08 c0 -1 -0.76 -1.56 -2.24 -2 l-5.16 -1.52 c-2.88 -0.84 -5 -2.52 -5 -5.4 c0 -3.4 3.68 -6.08 8.12 -6.08 c4.36 0 7.68 2.08 8.96 5.12 l-4.68 1.36 c-0.72 -1.28 -2.2 -2.36 -4.32 -2.36 c-1.64 0 -2.88 0.88 -2.88 1.84 c0 0.8 0.56 1.28 1.68 1.6 l5.04 1.44 c3.04 0.88 5.68 2.12 5.68 5.76 c0 3.8 -3.6 6.6 -8.76 6.6 z M83.03 35.08 l1.28 4.28 c-1.6 0.64 -3.04 0.96 -4.72 0.96 c-4.64 0 -6.76 -2.88 -6.76 -7.24 l0 -8.68 l-3.4 0 l0 -4.64 l3.4 0 l0 -6.56 l5.32 0 l0 6.56 l5.92 0 l0 4.64 l-5.92 0 l0 8.68 c0 1.64 0.8 2.56 2.48 2.56 c0.92 0 1.6 -0.16 2.4 -0.56 z M98.08000000000001 17.04 c-2.24 0 -3.92 -2.04 -5.08 -2.04 c-0.64 0 -0.92 0.56 -0.92 1.92 l-3.48 0 c0 -3.48 1.08 -5.76 3.84 -5.76 c2.24 0 3.96 2.08 5.12 2.08 c0.64 0 0.92 -0.56 0.92 -1.92 l3.48 0 c0 3.44 -1.08 5.72 -3.88 5.72 z M94.16000000000001 40.56 c-5.6 0 -10 -4.56 -10 -10.68 c0 -6.16 4.4 -10.68 10 -10.68 c2.84 0 5.08 1.16 6.52 3 l0 -2.44 l5.32 0 l0 20.24 l-5.32 0 l0 -2.48 c-1.44 1.84 -3.68 3.04 -6.52 3.04 z M95.08000000000001 35.84 c3.2 0 5.76 -2.48 5.76 -6 c0 -3.48 -2.56 -5.92 -5.76 -5.92 c-3.32 0 -5.68 2.44 -5.68 5.92 c0 3.52 2.36 6 5.68 6 z M118.25000000000001 40.56 c-6.24 0 -10.84 -4.64 -10.84 -10.68 c0 -6.08 4.6 -10.68 10.84 -10.68 s10.8 4.6 10.8 10.68 c0 6.04 -4.56 10.68 -10.8 10.68 z M118.25000000000001 35.76 c3.36 0 5.68 -2.52 5.68 -5.88 s-2.32 -5.88 -5.68 -5.88 c-3.4 0 -5.68 2.52 -5.68 5.88 s2.28 5.88 5.68 5.88 z M169.26999999999998 12 l5.76 0 l-8.48 28 l-5.8 0 l-5.52 -18.8 l-5.52 18.8 l-5.8 0 l-8.52 -28 l5.76 0 l5.76 20.28 l5.84 -20.28 l4.92 0 l5.84 20.28 z M183 40.56 c-6.48 0 -11 -4.28 -11 -10.68 c0 -6.04 4.24 -10.68 10.6 -10.68 c6.64 0 10.44 4.6 10.44 10.4 c0 0.64 0 1.24 -0.12 1.88 l-15.72 0 c0.36 2.6 2.2 4.6 5.88 4.6 c2.56 0 4.12 -1.16 4.92 -2.68 l4.76 1.4 c-1.16 2.64 -4.44 5.76 -9.76 5.76 z M177.20000000000002 28.16 l10.68 0 c-0.24 -2.48 -2.16 -4.48 -5.32 -4.48 c-3.08 0 -5.08 2.16 -5.36 4.48 z M206.33 19.2 c5.6 0 9.96 4.52 9.96 10.68 c0 6.12 -4.36 10.68 -9.96 10.68 c-2.88 0 -5.08 -1.2 -6.56 -3.04 l0 2.48 l-5.28 0 l0 -29.2 l5.28 0 l0 11.4 c1.48 -1.84 3.68 -3 6.56 -3 z M205.41000000000003 35.84 c3.32 0 5.68 -2.48 5.68 -6 c0 -3.48 -2.36 -5.92 -5.68 -5.92 c-3.2 0 -5.76 2.44 -5.76 5.92 c0 3.52 2.56 6 5.76 6 z"></path></g><g id="SvgjsG2029" featurekey="sloganFeature-0" transform="matrix(0.6535651467158317,0,0,0.6535651467158317,74.21316148028477,224.15036534043384)" fill="url(#SvgjsLinearGradient2046)"><path d="M5.12 20.32 c-1.64 0 -4.14 -0.72 -3.9 -1.6 l0.2 -0.74 c0.56 -2.1 1.22 0.98 4.52 0.98 c1.68 0 2.5 -0.82 2.5 -1.98 c0 -0.94 -0.6 -1.34 -2.02 -2.22 l-1.94 -1.22 c-2.16 -1.36 -3.04 -2.2 -3.04 -3.7 c0 -2.46 2.4 -4.16 4.88 -4.16 c1.52 0 3.46 0.66 3.24 1.34 l-0.24 0.76 c-0.62 1.94 -1.12 -0.74 -3.86 -0.74 c-1.42 0 -2.16 0.72 -2.16 1.78 c0 0.9 0.54 1.4 1.88 2.22 l2.1 1.3 c2.12 1.32 2.98 2.22 2.98 3.66 c0 2.5 -2.46 4.32 -5.14 4.32 z M22.9925 20.32 c-4.16 0 -7.22 -3.08 -7.22 -7.24 c0 -4.04 2.88 -7.4 7.26 -7.4 c4.18 0 7.22 3.06 7.22 7.22 c0 4.06 -2.86 7.42 -7.26 7.42 z M23.7725 18.96 c1.76 0 4.1 -1.16 4.1 -4.94 c0 -4.04 -2.74 -6.98 -5.62 -6.98 c-1.76 0 -4.08 1.16 -4.08 4.92 c0 4.08 2.74 7 5.6 7 z M35.465 20.04 c-0.2 0.02 -0.28 -0.68 -0.12 -0.72 c1.16 -0.3 2.06 -0.48 2.06 -1.96 l0 -8.88 c0 -1.4 -0.82 -1.68 -1.68 -1.8 c-0.16 -0.02 -0.04 -0.68 0.1 -0.68 l5.52 0 c0.14 0 0.24 0.66 0.1 0.68 c-0.84 0.1 -1.64 0.4 -1.64 1.8 l0 8.88 c0 1.14 0.48 1.56 2.14 1.56 c3.02 0 4.22 -1.38 4.7 -2.14 c0.14 -0.22 0.68 -0.12 0.68 0.22 c0 1.02 -0.86 3.04 -2.12 3.04 c-1.12 -0.06 -2.22 -0.12 -3.9 -0.12 c-1.84 0 -4.02 -0.06 -5.84 0.12 z M59.71750000000001 20.32 c-2.82 0 -5.98 -1.5 -5.98 -5.56 l0 -6.28 c0 -1.26 -0.64 -1.68 -1.62 -1.8 c-0.16 -0.02 -0.04 -0.68 0.12 -0.68 l5.46 0 c0.16 0 0.28 0.66 0.12 0.68 c-0.8 0.1 -1.6 0.4 -1.6 1.8 l0 6.38 c0 2.8 1.62 4.1 3.74 4.1 c2.18 0 3.92 -1.3 3.92 -4.1 l0 -6.38 c0 -1.3 -0.74 -1.66 -1.72 -1.8 c-0.14 -0.02 -0.04 -0.68 0.12 -0.68 l4.5 0 c0.14 0 0.26 0.66 0.1 0.68 c-0.8 0.1 -1.6 0.4 -1.6 1.8 l0 6.26 c0 3.68 -2.38 5.58 -5.56 5.58 z M83.77000000000001 17.46 c0.16 -0.1 0.58 0.36 0.46 0.54 c-0.86 1.26 -3.54 2.32 -4.16 2.32 c-0.56 0 -1.14 -0.06 -1.72 -0.16 l0 0.12 c-0.22 0.08 -0.3 0.24 -0.3 0.34 c0 0.6 1.26 0.92 1.26 2.1 c0 0.8 -0.78 1.72 -2.04 1.72 c-1.36 0 -2.02 -1.16 -1.22 -1.12 c1.3 0.06 1.6 -0.38 1.6 -0.96 c0 -0.84 -0.7 -1.06 -0.7 -1.58 c0 -0.34 0.32 -0.62 0.9 -0.72 c-2.84 -0.7 -5.68 -2.76 -5.68 -6.8 c0 -3.46 2.12 -7.58 7.72 -7.58 c2.32 0 4.32 0.72 4.08 1.42 l-0.26 0.78 c-0.72 2.14 -1.5 -0.6 -5.06 -0.6 c-2.86 0 -4.26 1.86 -4.26 4.74 c0 4.5 3.42 6.38 6.16 6.38 c0.36 0 2.18 -0.28 3.22 -0.94 z M99.2625 1.3399999999999999 c0.1 -0.1 0.68 0.32 0.6 0.42 c-0.62 0.78 -1.08 1.4 -1.66 1.8 c-0.88 0 -1.76 -0.8 -2.44 -0.8 c-0.28 0 -0.98 0.38 -1.36 0.76 c-0.1 0.1 -0.68 -0.32 -0.6 -0.42 c0.62 -0.78 1.08 -1.4 1.66 -1.8 c0.88 0 1.76 0.8 2.44 0.8 c0.28 0 1 -0.4 1.36 -0.76 z M104.1025 19.32 c0.28 0.04 0.2 0.68 -0.04 0.68 l-5.28 0 c-0.26 0 -0.28 -0.64 -0.06 -0.68 c0.74 -0.14 1.54 -0.4 0.8 -2.12 l-0.22 -0.5 c-0.2 -0.48 -0.54 -0.52 -1.14 -0.52 l-4.08 0 c-0.6 0 -0.94 0.04 -1.14 0.52 l-0.2 0.5 c-0.7 1.72 0.06 1.98 1.02 2.12 c0.26 0.04 0.2 0.68 -0.06 0.68 l-4.32 0 c-0.24 0 -0.3 -0.64 -0.06 -0.68 c0.82 -0.14 1.3 -0.42 2.04 -2.12 l3.38 -7.76 c0.78 -1.76 1.02 -2.58 1.02 -3.34 c0 -0.12 1.4 -0.44 1.46 -0.3 l4.88 11.38 c0.72 1.7 1.2 2.02 2 2.14 z M98.02250000000001 15.059999999999999 c0.28 0 0.58 -0.04 0.46 -0.32 l-2.34 -5.6 l-2.36 5.6 c-0.12 0.28 0.18 0.32 0.46 0.32 l3.78 0 z M116.51500000000001 20.32 c-4.16 0 -7.22 -3.08 -7.22 -7.24 c0 -4.04 2.88 -7.4 7.26 -7.4 c4.18 0 7.22 3.06 7.22 7.22 c0 4.06 -2.86 7.42 -7.26 7.42 z M117.295 18.96 c1.76 0 4.1 -1.16 4.1 -4.94 c0 -4.04 -2.74 -6.98 -5.62 -6.98 c-1.76 0 -4.08 1.16 -4.08 4.92 c0 4.08 2.74 7 5.6 7 z M136.3 20.04 c-0.2 0.02 -0.28 -0.68 -0.12 -0.72 c1.16 -0.3 2.06 -0.48 2.06 -1.96 l0 -8.88 c0 -1.28 -0.82 -1.62 -1.68 -1.84 c-0.16 -0.04 -0.06 -0.7 0.1 -0.68 c0.82 0.1 1.66 0.12 2.5 0.12 c1.56 0 2.96 -0.12 3.98 -0.12 c4.84 0 7.46 2.88 7.46 6.74 c0 3.84 -2.62 7.34 -7.48 7.34 c-0.96 0 -2.2 -0.12 -3.68 -0.12 c-1.24 0 -2.22 0.02 -3.14 0.12 z M143.32000000000002 18.98 c3.26 0 4.88 -1.76 4.88 -5.14 c0 -3.82 -2.08 -6.82 -5.68 -6.82 c-1.42 0 -1.88 0.44 -1.88 1.46 l0 8.88 c0 1.08 0.74 1.62 2.68 1.62 z M156.01250000000002 20 c-0.16 0 -0.28 -0.66 -0.12 -0.68 c1.02 -0.14 1.66 -0.54 1.66 -1.8 l0 -9.04 c0 -1.26 -0.64 -1.66 -1.66 -1.8 c-0.16 -0.02 -0.04 -0.68 0.12 -0.68 l5.48 0 c0.16 0 0.28 0.66 0.12 0.68 c-0.86 0.12 -1.66 0.4 -1.66 1.8 l0 9.04 c0 1.4 0.8 1.68 1.66 1.8 c0.16 0.02 0.04 0.68 -0.12 0.68 l-5.48 0 z M175.62500000000003 20.32 c-4.78 0 -8.62 -2.36 -8.62 -7.06 c0 -3.82 2.62 -7.58 8.18 -7.58 c2.44 0 4.34 0.72 4.1 1.4 l-0.3 0.84 c-0.7 1.98 -1.5 -0.62 -5.24 -0.62 c-3.1 0 -4.52 1.78 -4.52 4.8 c0 4.5 3.06 6.94 5.82 6.94 c1.44 0 1.98 -0.7 1.98 -1.84 l0 -0.36 c0 -1.52 -0.68 -2.02 -2.28 -2.26 c-0.26 -0.04 -0.02 -0.76 0.42 -0.76 l5.14 0 c0.56 0 0.36 0.7 0.14 0.76 c-0.74 0.2 -1.24 0.62 -1.24 1.9 l0 0.7 c0 0.48 0.04 0.9 0.42 1.52 c-1.2 0.66 -3.52 1.62 -4 1.62 z M186.07750000000004 20 c-0.16 0 -0.28 -0.66 -0.12 -0.68 c1.02 -0.14 1.66 -0.54 1.66 -1.8 l0 -9.04 c0 -1.26 -0.64 -1.66 -1.66 -1.8 c-0.16 -0.02 -0.04 -0.68 0.12 -0.68 l5.48 0 c0.16 0 0.28 0.66 0.12 0.68 c-0.86 0.12 -1.66 0.4 -1.66 1.8 l0 9.04 c0 1.4 0.8 1.68 1.66 1.8 c0.16 0.02 0.04 0.68 -0.12 0.68 l-5.48 0 z M199.75000000000006 20 c-0.18 0 -0.3 -0.64 -0.14 -0.66 c1.38 -0.18 2.3 -0.46 2.3 -1.54 l0 -9.86 c0 -0.5 -0.18 -0.66 -0.66 -0.66 l-0.54 0 c-1.9 0 -2.96 0.44 -3.36 1.3 c-0.18 0.4 -0.86 0.34 -0.78 0 c0.18 -0.72 0.34 -1.34 0.46 -2.4 c0.04 -0.38 0.26 -0.36 0.62 -0.32 c0.92 0.1 1.76 0.14 5.56 0.14 s5.14 -0.04 6.1 -0.14 c0.36 -0.04 0.7 -0.06 0.58 0.32 c-0.3 0.94 -0.5 1.68 -0.62 2.4 c-0.06 0.34 -0.6 0.36 -0.68 0 c-0.2 -0.84 -1.08 -1.3 -2.8 -1.3 l-0.62 0 c-0.48 0 -0.78 0.16 -0.78 0.66 l0 9.86 c0 1.08 0.92 1.36 2.3 1.54 c0.16 0.02 0.04 0.66 -0.14 0.66 l-6.8 0 z M229.36250000000007 19.32 c0.28 0.04 0.2 0.68 -0.04 0.68 l-5.28 0 c-0.26 0 -0.28 -0.64 -0.06 -0.68 c0.74 -0.14 1.54 -0.4 0.8 -2.12 l-0.22 -0.5 c-0.2 -0.48 -0.54 -0.52 -1.14 -0.52 l-4.08 0 c-0.6 0 -0.94 0.04 -1.14 0.52 l-0.2 0.5 c-0.7 1.72 0.06 1.98 1.02 2.12 c0.26 0.04 0.2 0.68 -0.06 0.68 l-4.32 0 c-0.24 0 -0.3 -0.64 -0.06 -0.68 c0.82 -0.14 1.3 -0.42 2.04 -2.12 l3.38 -7.76 c0.78 -1.76 1.02 -2.58 1.02 -3.34 c0 -0.12 1.4 -0.44 1.46 -0.3 l4.88 11.38 c0.72 1.7 1.2 2.02 2 2.14 z M223.28250000000008 15.059999999999999 c0.28 0 0.58 -0.04 0.46 -0.32 l-2.34 -5.6 l-2.36 5.6 c-0.12 0.28 0.18 0.32 0.46 0.32 l3.78 0 z M234.15500000000006 20.04 c-0.2 0.02 -0.28 -0.68 -0.12 -0.72 c1.16 -0.3 2.06 -0.48 2.06 -1.96 l0 -8.88 c0 -1.4 -0.82 -1.68 -1.68 -1.8 c-0.16 -0.02 -0.04 -0.68 0.1 -0.68 l5.52 0 c0.14 0 0.24 0.66 0.1 0.68 c-0.84 0.1 -1.64 0.4 -1.64 1.8 l0 8.88 c0 1.14 0.48 1.56 2.14 1.56 c3.02 0 4.22 -1.38 4.7 -2.14 c0.14 -0.22 0.68 -0.12 0.68 0.22 c0 1.02 -0.86 3.04 -2.12 3.04 c-1.12 -0.06 -2.22 -0.12 -3.9 -0.12 c-1.84 0 -4.02 -0.06 -5.84 0.12 z"></path></g></svg>